<?xml version="1.0" encoding="UTF-8"?>
<svg width="18px" height="24px" viewBox="0 0 18 24" version="1.1" xmlns="http://www.w3.org/2000/svg" xmlns:xlink="http://www.w3.org/1999/xlink">
    <!-- Generator: Sketch 58 (84663) - https://sketch.com -->
    <title>Path</title>
    <desc>Created with Sketch.</desc>
    <g id="Page-1" stroke="none" stroke-width="1" fill="none" fill-rule="evenodd">
        <g id="Frontpage----fetched" transform="translate(-1008.000000, -636.000000)" fill="#545454" fill-rule="nonzero">
            <g id="Joke-2" transform="translate(418.000000, 611.000000)">
                <g id="002-bookmark-1" transform="translate(590.000000, 25.000000)">
                    <path d="M17.2314983,0 L0.768501678,0 C0.344083818,0 0,0.31481247 0,0.703124932 L0,23.2968727 C0,23.5812633 0.187258242,23.8376227 0.474421702,23.9464664 C0.569510977,23.9825133 0.669364961,24 0.768347978,24 C0.968312114,24 1.16489484,23.9286071 1.3118836,23.7940289 L9.00012808,16.7598734 L16.6880652,23.7940289 C16.9078566,23.9951696 17.2383636,24.0552633 17.5255783,23.9464664 C17.8127418,23.8376227 18,23.5812633 18,23.2968727 L18,0.703124932 C18,0.31481247 17.6559674,0 17.2314983,0 Z" id="Path"></path>
                </g>
            </g>
        </g>
    </g>
</svg>