<?xml version="1.0" encoding="UTF-8"?>
<svg width="18px" height="25px" viewBox="0 0 18 25" version="1.1" xmlns="http://www.w3.org/2000/svg" xmlns:xlink="http://www.w3.org/1999/xlink">
    <!-- Generator: Sketch 58 (84663) - https://sketch.com -->
    <title>Shape</title>
    <desc>Created with Sketch.</desc>
    <g id="Page-1" stroke="none" stroke-width="1" fill="none" fill-rule="evenodd">
        <g id="Frontpage----fetched" transform="translate(-1008.000000, -408.000000)" fill="#545454" fill-rule="nonzero">
            <g id="Joke-1" transform="translate(418.000000, 384.491250)">
                <g id="001-bookmark" transform="translate(590.000000, 23.508750)">
                    <path d="M17.3731483,0 L0.626607583,0 C0.280750338,0 6.81168169e-07,0.276643375 6.81168169e-07,0.61798178 L6.81168169e-07,23.7630893 C-0.000488140537,24.226817 0.262147966,24.6516795 0.680211803,24.8636279 C1.09852039,25.075335 1.60176351,25.0384008 1.98335692,24.7677924 L8.999878,19.8072817 L16.0166438,24.767551 C16.3984819,25.0376767 16.9012355,25.0743694 17.3192994,24.8626623 C17.7371185,24.6509552 18.0000007,24.2263342 18.0000007,23.7630893 L18.0000007,0.61798178 C18.0000007,0.276643375 17.7192503,0 17.3731483,0 Z M16.7465421,23.7628479 L9.36531669,18.5445228 C9.14698358,18.3902688 8.85326192,18.3902688 8.63517356,18.5445228 L1.25370337,23.7630893 L1.25370337,1.23596356 L16.7465421,1.23596356 L16.7465421,23.7628479 Z" id="Shape"></path>
                </g>
            </g>
        </g>
    </g>
</svg>