<?xml version="1.0" encoding="UTF-8"?>
<svg width="22px" height="22px" viewBox="0 0 22 22" version="1.1" xmlns="http://www.w3.org/2000/svg" xmlns:xlink="http://www.w3.org/1999/xlink">
    <!-- Generator: Sketch 58 (84663) - https://sketch.com -->
    <title>001-close</title>
    <desc>Created with Sketch.</desc>
    <g id="Page-1" stroke="none" stroke-width="1" fill="none" fill-rule="evenodd">
        <g id="Frontpage----fetched" transform="translate(-998.000000, -859.000000)" fill="#545454" fill-rule="nonzero">
            <g id="Joke-3" transform="translate(410.000000, 833.000000)">
                <g id="001-close" transform="translate(588.000000, 26.000000)">
                    <path d="M13.0155292,11.0001631 L21.581887,2.43336649 C22.139371,1.87613189 22.139371,0.975160557 21.581887,0.417925953 C21.024664,-0.139308651 20.1237113,-0.139308651 19.5664883,0.417925953 L10.9998695,8.98472262 L2.43351171,0.417925953 C1.87602769,-0.139308651 0.975336045,-0.139308651 0.41811301,0.417925953 C-0.139371003,0.975160557 -0.139371003,1.87613189 0.41811301,2.43336649 L8.98447085,11.0001631 L0.41811301,19.5669598 C-0.139371003,20.1241944 -0.139371003,21.0251657 0.41811301,21.5824003 C0.695811038,21.8603651 1.0609422,22 1.42581239,22 C1.79068251,22 2.1555527,21.8603651 2.43351171,21.5824003 L10.9998695,13.0156036 L19.5664883,21.5824003 C19.8444473,21.8603651 20.2093175,22 20.5741877,22 C20.9390578,22 21.3039279,21.8603651 21.581887,21.5824003 C22.139371,21.0251657 22.139371,20.1241944 21.581887,19.5669598 L13.0155292,11.0001631 Z" id="Path"></path>
                </g>
            </g>
        </g>
    </g>
</svg>