<?xml version="1.0" encoding="UTF-8"?>
<svg width="55px" height="55px" viewBox="0 0 55 55" version="1.1" xmlns="http://www.w3.org/2000/svg" xmlns:xlink="http://www.w3.org/1999/xlink">
    <!-- Generator: Sketch 58 (84663) - https://sketch.com -->
    <title>search icon</title>
    <desc>Created with Sketch.</desc>
    <g id="Page-1" stroke="none" stroke-width="1" fill="none" fill-rule="evenodd">
        <g id="Frontpage" transform="translate(-685.000000, -539.000000)" fill-rule="nonzero">
            <g id="Placerholder" transform="translate(601.000000, 539.000000)">
                <g id="search-icon" transform="translate(84.000000, 0.000000)">
                    <path d="M11.3786999,40 L1,53.8069305 C2.5951143,55.3976898 5.18156534,55.3976898 6.77667964,53.8069305 L16,44.6087917 L11.3786999,40 Z" id="Path" fill="#1B74D6"></path>
                    <path d="M14,42.4527393 L4.70074836,51.6406935 C3.09250224,53.2296915 1.52774596,54.2601963 1.2061846,53.9424836 C-0.402061532,52.3534856 -0.402061532,49.7769521 1.2061846,48.1879542 L10.5054362,39 L14,42.4527393 Z" id="Path" fill="#1E8AFF"></path>
                    <polygon id="Path" fill="#FFEAC3" transform="translate(16.449095, 38.542727) rotate(-45.000000) translate(-16.449095, -38.542727) " points="12.2998219 36.0531635 20.5983673 36.0531635 20.5983673 41.0322908 12.2998219 41.0322908"></polygon>
                    <path d="M15.6305252,31 L14.0681391,34.6526923 C13.9323039,34.9703569 14.0033215,35.3387487 14.2475993,35.583028 L19.4170007,40.7523491 C19.6612785,40.9966284 20.029668,41.0677592 20.3473306,40.9318104 L24,39.3694145 L15.6305252,31 Z" id="Path" fill="#FFD17E"></path>
                    <path d="M17.5308045,43.2654022 L15.2654022,41 L13,43.2654022 L15.2654022,45.5308045 C15.8909963,46.1563985 16.9052104,46.1563985 17.5308045,45.5308045 C18.1563985,44.9052104 18.1563985,43.8909963 17.5308045,43.2654022 Z" id="Path" fill="#FFB739"></path>
                    <path d="M15.5025154,43.5025154 C16.1658282,42.8392025 16.1658282,41.7638386 15.5025154,41.1005257 L11.8994743,37.4974846 C11.2361614,36.8341718 10.1607975,36.8341718 9.49748463,37.4974846 C8.83417179,38.1607975 8.83417179,39.2361614 9.49748463,39.8994743 L13.1005257,43.5025154 C13.7638386,44.1658282 14.8392025,44.1658282 15.5025154,43.5025154 Z" id="Path" fill="#FFD17E"></path>
                    <circle id="Oval" fill="#FFB739" cx="34" cy="21" r="21"></circle>
                    <path d="M34,3 L34,38 C43.9411104,38 52,30.1649685 52,20.5 C52,10.8350315 43.9411104,3 34,3 Z" id="Path" fill="#DBEBFF"></path>
                    <path d="M48,20.5 C48,10.8350315 41.5853937,3 33.6724739,3 C23.9122509,3 16,10.8350315 16,20.5 C16,30.1649685 23.9122509,38 33.6724739,38 C41.5853937,38 48,30.1649685 48,20.5 Z" id="Path" fill="#FFFFFF"></path>
                </g>
            </g>
        </g>
    </g>
</svg>