<?xml version="1.0" encoding="UTF-8"?>
<svg width="28px" height="31px" viewBox="0 0 28 31" version="1.1" xmlns="http://www.w3.org/2000/svg" xmlns:xlink="http://www.w3.org/1999/xlink">
    <!-- Generator: Sketch 58 (84663) - https://sketch.com -->
    <title>001-stopwatch</title>
    <desc>Created with Sketch.</desc>
    <g id="Page-1" stroke="none" stroke-width="1" fill="none" fill-rule="evenodd">
        <g id="Frontpage" transform="translate(-606.000000, -398.000000)" fill="#5A5A5A" fill-rule="nonzero">
            <g id="Button" transform="translate(548.000000, 374.000000)">
                <g id="001-stopwatch" transform="translate(58.000000, 24.000000)">
                    <path d="M27.6423817,6.82897204 L24.3613905,3.58070724 C23.8845051,3.10857854 23.1113902,3.10857854 22.6345658,3.58070724 C22.1577415,4.05283594 22.1576804,4.81823931 22.6345658,5.29030757 L23.4116491,6.0596398 L21.8180423,7.63735115 C19.7435815,5.92400329 17.2212356,4.88968421 14.5306274,4.64893544 L14.5306274,2.41776316 L15.6295824,2.41776316 C16.3039744,2.41776316 16.8506435,1.87654688 16.8506435,1.20888158 C16.8506435,0.541216283 16.3039744,0 15.6295824,0 L10.9895501,0 C10.3151581,0 9.76848899,0.541216283 9.76848899,1.20888158 C9.76848899,1.87654688 10.3151581,2.41776316 10.9895501,2.41776316 L12.0885051,2.41776316 L12.0885051,4.64893544 C5.38951959,5.24829893 0,10.8175559 0,17.7705592 C0,25.0529827 5.95273403,30.9473684 13.3095663,30.9473684 C20.6653606,30.9473684 26.6191325,25.0540103 26.6191325,17.7705592 C26.6191325,14.6570243 25.5350744,11.7088643 23.5448669,9.34695148 L25.1384738,7.76924013 L25.9155571,8.53857237 C26.3923815,9.01064063 27.1654963,9.01070107 27.6423817,8.53857237 C28.1192061,8.06650411 28.1192061,7.30110074 27.6423817,6.82897204 Z M13.3095663,28.5296053 C7.31726984,28.5296053 2.44212225,23.7030851 2.44212225,17.7705592 C2.44212225,11.8380333 7.31726984,7.01151316 13.3095663,7.01151316 C19.3018627,7.01151316 24.1770103,11.8380333 24.1770103,17.7705592 C24.1770103,23.7030851 19.3019237,28.5296053 13.3095663,28.5296053 Z M19.654383,17.7705592 C19.654383,18.4382245 19.1077139,18.9794408 18.4333219,18.9794408 L13.3096273,18.9794408 C12.6352352,18.9794408 12.0885662,18.4382245 12.0885662,17.7705592 L12.0885662,10.6578022 C12.0885662,9.99013692 12.6352352,9.44892064 13.3096273,9.44892064 C13.9840194,9.44892064 14.5306884,9.99013692 14.5306884,10.6578022 L14.5306884,16.5616776 L18.4333219,16.5616776 C19.1077139,16.5616776 19.654383,17.1028939 19.654383,17.7705592 Z" id="Shape"></path>
                </g>
            </g>
        </g>
    </g>
</svg>